<?xml version="1.0" encoding="utf-8"?>
<!-- Generator: Adobe Illustrator 19.0.0, SVG Export Plug-In . SVG Version: 6.00 Build 0)  -->
<svg version="1.1" id="Isolation_Mode" xmlns="http://www.w3.org/2000/svg" xmlns:xlink="http://www.w3.org/1999/xlink" x="0px"
	 y="0px" viewBox="0 0 800 705.5" style="enable-background:new 0 0 800 705.5;" xml:space="preserve">
<style type="text/css">
	.st0{fill:#6E6F74;}
	.st1{fill:#ED1C24;}
	.st2{fill:#1A1A1A;}
</style>
<g>
	<path class="st0" d="M30.8,369.8c2,0.6,4.1,0.1,5.6-1.2c26.3-24,61.1-43.8,103.3-59c11.6-4.1,30.3-8.2,50.1-10.9
		c26.1-3.6,49.5-4.3,67-2.3c-35.4,10.2-95.1,28.9-118.6,37.4c-35.5,12.9-66.5,32.8-100.5,64.5c-1.5,1.4-2.2,3.6-1.7,5.6
		c3.4,13.8,4.4,16.6,4.4,16.8c0.7,2,2.4,3.5,4.5,3.8c2.1,0.3,4.2-0.5,5.5-2.2c30.2-39.6,105.6-68.7,218.2-84
		c25.8-3.5,53.4-6.3,82-8.2c0.1,0,0.3,0,0.4,0c0,0,0,0,0,0c3.2-0.4,5.4-3.3,4.9-6.5c-0.1-0.4-0.2-0.9-0.3-1.3
		c-0.4-1.7-0.7-3.5-1-5.1c-4.1-30.4,17.2-58.5,47.7-62.7c1.6-0.2,3.1-0.4,4.7-0.4c-15.2,10.8-24,29.6-21.3,49.2
		c3.9,28.3,30,48.3,58.4,44.4c13.8-1.9,26.3-9.3,34.6-20.4c99.7,2,160.2,13.3,165.7,20.8c10,13.7,20.1,15.5,26.8,14.6
		c11.4-1.5,19.9-11.3,24-17l47.9,15.6c0.8,0.3,1.7,0.3,2.6,0.2c1.1-0.1,2.1-0.6,2.9-1.3c1.5-1.3,2.3-3.2,2-5.2l-12.7-93.2
		c-0.2-1.5-1-2.9-2.2-3.8c-0.9-0.7-87-66-192.9-128.5C400.1,45.1,291.1,5.6,219,12.1c-3.7,0.3-7.5,0.8-11.2,1.3
		C117.4,25.7,67.3,85.2,45.5,119.6c-1.6,2.5-1,5.8,1.4,7.7c2.4,1.8,5.7,1.5,7.8-0.6c39-42.1,139.3-63.7,164.6-68.6L234,167.4
		c-14.7,2.3-56.1,9.1-98.3,18.5C27.4,210.1,18.8,227.8,16,233.6c-8.9,18.3-5.3,61.5,11,131.9C27.4,367.6,28.9,369.2,30.8,369.8z
		 M294.2,164.2l-13-104.9l74.5,20.9l11.6,94.5L294.2,164.2z M410.3,182.1l-3.4-85.3l61.6,28.9l5.4,74.6L410.3,182.1z M584,232
		l-0.6-42.5l34.8,19.9l2.4,36.8L584,232z M508.2,208.6l-2-63.2l45.7,26.2l3.7,51.1L508.2,208.6z M693.4,276.3l-1.6-18.7l4.4,2.6
		l1.6,18L693.4,276.3z M648.8,256.5l-0.8-26.4l17.4,9.8l2,25.1L648.8,256.5z"/>
	<g>
		<path class="st1" d="M70.1,545.9c21-16.5,45.5-31,75-44.4c24.7-11.2,51.3-21,81.4-30.2C278,455.8,332.5,444.2,393,436l4-0.5
			c62.1-8.1,119-11.3,174.1-9.8c31.3,0.8,59.6,3.2,86.7,7.3c31.7,4.8,59.4,11.8,84.8,21.5c1.1,0.4,2.3,0.5,3.4,0.4
			c2.1-0.3,4-1.5,5.1-3.4c1.7-2.9,1-6.7-1.6-8.8c-11.6-9.6-25-18.2-39.6-25.8c-13-6.8-27.2-12.9-43.4-18.6
			c-27.7-9.7-57.6-16.7-91.3-21.4c-59-8.1-121.5-7.9-185.8,0.6l-1.8,0.2c-63.9,8.7-123.7,24.8-177.7,47.8
			c-31.5,13.6-58.4,28.3-82.4,45.1c-14.1,9.9-26.1,19.7-36.7,29.8c-12.1,11.5-22.4,23.6-30.7,36.2c-1.9,2.8-1.4,6.6,1.1,8.9
			C63.6,547.8,67.4,548,70.1,545.9z"/>
	</g>
	<g id="wildport">
		<path class="st2" d="M78.6,662.3c-10,0-17.8-3.4-23.5-10.3c-5.7-6.9-8.6-16.3-8.6-28.1c0-5.5,0.5-10.6,1.4-15
			c0.9-4.5,2.3-9,4.2-13.7h13.2c-1.2,3-2.1,5.8-2.8,8.5c-0.6,2.7-1.1,5.4-1.4,7.9c-0.3,2.5-0.4,6.3-0.4,11.4
			c0,8.6,1.8,15.2,5.4,19.9c3.6,4.7,8.7,7,15.4,7h31.2c8.1,0,14.6-1.5,19.3-4.4c4.7-3,7.1-6.9,7.1-11.8c0-2-0.7-3.9-2-5.8
			c-1.3-1.9-3.2-3.7-5.4-5.5c-2.3-1.8-6.2-4.4-11.7-7.7c-6.4-3.8-10.8-6.8-13.4-9c-2.5-2.2-4.5-4.5-5.8-6.8c-1.3-2.4-2-4.9-2-7.7
			c0-6.3,2.3-13,7-20c4.7-7,10.5-12.8,17.5-17.4c6.9-4.6,13.7-6.8,20.2-6.8c2.5,0,6.1,0.7,10.7,2.2c4.6,1.5,7.9,2.9,9.9,4.2
			l-5.8,10.7c-1.6-0.8-3.8-1.4-6.7-1.9c-2.9-0.5-5.4-0.8-7.7-0.8c-3.6,0-7.7,1.5-12.5,4.4c-4.7,2.9-8.8,6.5-12.1,10.7
			c-3.3,4.3-4.9,8.3-4.9,12.1c0,3.6,4,7.8,11.9,12.6c7.8,4.8,13.4,8.7,16.7,11.8c3.3,3.1,5.8,6.5,7.7,10.1c1.8,3.6,2.7,7.3,2.7,11.1
			c0,8.9-3.6,15.8-10.7,20.8c-7.1,5-17.2,7.5-30.3,7.5H78.6z M83.5,694.1c-2.5,0-4.6-0.8-6.3-2.3c-1.7-1.5-2.6-3.9-2.6-7.3
			c0-3.4,0.9-5.8,2.6-7.3c1.7-1.5,3.9-2.3,6.3-2.3c2.7,0,4.8,0.8,6.5,2.4c1.6,1.6,2.4,4,2.4,7.1c0,3.1-0.8,5.4-2.4,7.1
			C88.4,693.3,86.2,694.1,83.5,694.1z M111,694.1c-2.7,0-4.9-0.8-6.5-2.5c-1.6-1.7-2.4-4-2.4-7.1c0-3.1,0.8-5.4,2.4-7.1
			c1.6-1.7,3.8-2.5,6.6-2.5c2.9,0,5.1,0.9,6.6,2.6c1.6,1.7,2.3,4.1,2.3,7c0,2.9-0.8,5.2-2.3,7C116.1,693.2,113.9,694.1,111,694.1z"
			/>
		<path class="st2" d="M202.7,624v3.8c0,10.7-2.4,19.2-7.3,25.3c-4.9,6.1-11.9,9.2-21.1,9.2c-5.1,0-10.5-1.5-16.3-4.5l4.1-10.7
			c2.6,1.1,4.7,1.9,6.4,2.2c1.7,0.3,3.5,0.5,5.4,0.5c4.8,0,8.5-1.9,11.2-5.8c2.7-3.9,4-9,4-15.4v-81.8h13.5v64.8h19.7
			c0.6,0,0.9,0.2,0.9,0.6v11c0,0.5-0.3,0.8-0.9,0.8H202.7z"/>
		<path class="st2" d="M220.8,624c-0.5,0-0.8-0.3-0.8-0.8v-11c0-0.4,0.3-0.6,0.8-0.6h21v-64.8H256v64.8h20.8c0.5,0,0.8,0.2,0.8,0.6
			v11c0,0.5-0.3,0.8-0.8,0.8H220.8z M248,655.9c-2.7,0-4.9-0.8-6.5-2.5c-1.6-1.7-2.4-4-2.4-7.1c0-3.1,0.8-5.4,2.4-7.1
			c1.6-1.7,3.8-2.5,6.6-2.5c2.9,0,5.1,0.9,6.6,2.6c1.6,1.7,2.3,4.1,2.3,7c0,2.9-0.8,5.2-2.3,7S250.9,655.9,248,655.9z"/>
		<path class="st2" d="M275.1,624c-0.5,0-0.8-0.3-0.8-0.8v-11c0-0.4,0.3-0.6,0.8-0.6h21V503h14.2v121H275.1z"/>
		<path class="st2" d="M336.7,503h14.2v121h-14.2V503z"/>
		<path class="st2" d="M388,613.8c2.2-0.3,3.9-0.6,5.1-0.9l9-1.6c-3-2-5.4-4.9-7.3-8.9c-1.9-3.9-2.9-8.2-2.9-12.9
			c0-6.4,1.4-11.9,4.1-16.5c2.7-4.6,6.6-8.1,11.6-10.5c5-2.4,10.8-3.7,17.3-3.7c7.6,0,14.1,1.6,19.3,4.7l-3.5,11.9
			c-5.2-2.7-10.4-4.1-15.5-4.1c-6.2,0-10.9,1.6-14.1,4.9c-3.2,3.3-4.8,8-4.8,14.2c0,4,0.9,7.6,2.8,10.9c1.8,3.3,4.3,5.6,7.3,7.1
			l3.5-0.4c16.1-2.1,25.9-3.1,29.5-3.1v12.9c-5.2,0-15.4,1-30.6,3c-15.2,2-25.5,3.5-30.7,4.7V613.8z"/>
		<path class="st2" d="M466.3,503h14.2v108.6h21c0.6,0,0.9,0.2,0.9,0.6v11c0,0.5-0.3,0.8-0.9,0.8h-35.2V503z"/>
		<path class="st2" d="M499.9,624c-0.5,0-0.8-0.3-0.8-0.8v-11c0-0.4,0.3-0.6,0.8-0.6h21v-64.8H535v64.8h20.8c0.5,0,0.8,0.2,0.8,0.6
			v11c0,0.5-0.3,0.8-0.8,0.8H499.9z M527.4,531.6c-2.7,0-4.9-0.8-6.5-2.5c-1.6-1.7-2.4-4-2.4-7.1c0-3.1,0.8-5.4,2.4-7.1
			c1.6-1.7,3.8-2.5,6.6-2.5c2.9,0,5.1,0.9,6.6,2.6c1.6,1.7,2.3,4.1,2.3,7c0,2.9-0.8,5.2-2.3,7C532.5,530.7,530.3,531.6,527.4,531.6z
			"/>
		<path class="st2" d="M554.2,624c-0.5,0-0.8-0.3-0.8-0.8v-11c0-0.4,0.3-0.6,0.8-0.6H580v-64.8h14.2v64.8H618c0.5,0,0.8,0.2,0.8,0.6
			v11c0,0.5-0.3,0.8-0.8,0.8H554.2z M573.8,655.9c-2.5,0-4.6-0.8-6.3-2.3c-1.7-1.5-2.6-3.9-2.6-7.3c0-3.4,0.9-5.8,2.6-7.3
			c1.7-1.5,3.9-2.3,6.3-2.3c2.7,0,4.8,0.8,6.5,2.5c1.6,1.6,2.4,4,2.4,7.1c0,3.1-0.8,5.4-2.4,7.1
			C578.7,655.1,576.5,655.9,573.8,655.9z M601.3,655.9c-2.7,0-4.9-0.8-6.5-2.5c-1.6-1.7-2.4-4-2.4-7.1c0-3.1,0.8-5.4,2.4-7.1
			c1.6-1.7,3.8-2.5,6.6-2.5c2.9,0,5.1,0.9,6.6,2.6c1.6,1.7,2.3,4.1,2.3,7c0,2.9-0.8,5.2-2.3,7C606.4,655,604.2,655.9,601.3,655.9z"
			/>
		<path class="st2" d="M616.5,624c-0.5,0-0.8-0.3-0.8-0.8v-11c0-0.4,0.3-0.6,0.8-0.6h19.8c-3.9-10.3-5.9-19.3-5.9-27.2
			c0-9.5,1.9-17.9,5.8-25.4c3.9-3.3,8.3-5.9,13.4-7.8c5-1.9,10.3-2.9,15.7-2.9c6.6,0,12.5,1.5,17.5,4.4c5,2.9,8.9,7.1,11.6,12.5
			c2.7,5.4,4,11.5,4,18.4c0,6.8-1.1,13-3.3,18.7c2.3,3.5,4.8,5.9,7.7,7.2c2.8,1.3,6.5,2,11.2,2h0.8c0.6,0,0.9,0.2,0.9,0.6v11
			c0,0.5-0.3,0.8-0.9,0.8h-0.8c-5.7,0-10.5-0.8-14.5-2.3c-4-1.6-7.8-4.2-11.5-8c-3.4,3.5-7.3,6.1-11.8,7.8c-4.5,1.7-9.2,2.5-14,2.5
			H616.5z M644.6,581.6c0,4.9,0.4,9.8,1.3,14.5c0.9,4.7,2.5,9.9,4.7,15.4H662c7.1,0,12.5-2.4,16.3-7.2c3.8-4.8,5.7-11.8,5.7-20.9
			c0-6.7-1.8-12.2-5.5-16.4c-3.7-4.3-8.1-6.4-13.3-6.4c-3.4,0-6.7,0.6-9.9,1.8c-3.2,1.2-6.1,2.8-8.7,4.7c-0.9,2.2-1.4,4.5-1.6,6.8
			C644.7,576.3,644.6,578.8,644.6,581.6z"/>
		<path class="st2" d="M713,624c-0.5,0-0.8-0.3-0.8-0.8v-11c0-0.4,0.3-0.6,0.8-0.6h21V503h14.2v121H713z"/>
		<path class="st2" d="M774.6,503h14.2v121h-14.2V503z"/>
	</g>
</g>
</svg>
